<svg xmlns="http://www.w3.org/2000/svg" width="3" height="13" viewBox="0 0 3 13">
  <g id="Groupe_194" data-name="Groupe 194" transform="translate(-0.5 0)">
    <path id="Rectangle_9" data-name="Rectangle 9" d="M1.435,0H1.5A1.5,1.5,0,0,1,3,1.5v0A1.5,1.5,0,0,1,1.5,3h0A1.5,1.5,0,0,1,0,1.5V1.435A1.435,1.435,0,0,1,1.435,0Z" transform="translate(0.5 0)" fill="#5f5f5f"/>
    <path id="Rectangle_279" data-name="Rectangle 279" d="M1.435,0H1.5A1.5,1.5,0,0,1,3,1.5v0A1.5,1.5,0,0,1,1.5,3h0A1.5,1.5,0,0,1,0,1.5V1.435A1.435,1.435,0,0,1,1.435,0Z" transform="translate(0.5 5)" fill="#5f5f5f"/>
    <path id="Rectangle_280" data-name="Rectangle 280" d="M1.435,0H1.5A1.5,1.5,0,0,1,3,1.5v0A1.5,1.5,0,0,1,1.5,3h0A1.5,1.5,0,0,1,0,1.5V1.435A1.435,1.435,0,0,1,1.435,0Z" transform="translate(0.5 10)" fill="#5f5f5f"/>
  </g>
</svg>
