<svg id="user" xmlns="http://www.w3.org/2000/svg" width="17.103" height="20.5" viewBox="0 0 17.103 20.5">
  <path id="Tracé_63" data-name="Tracé 63" d="M91.969,9.875a4.778,4.778,0,0,0,3.491-1.447,4.778,4.778,0,0,0,1.446-3.491A4.778,4.778,0,0,0,95.46,1.446a4.936,4.936,0,0,0-6.982,0,4.778,4.778,0,0,0-1.447,3.491,4.778,4.778,0,0,0,1.447,3.491A4.779,4.779,0,0,0,91.969,9.875ZM89.328,2.3a3.735,3.735,0,0,1,5.283,0,3.57,3.57,0,0,1,1.095,2.642,3.57,3.57,0,0,1-1.095,2.642,3.735,3.735,0,0,1-5.283,0,3.569,3.569,0,0,1-1.095-2.642A3.569,3.569,0,0,1,89.328,2.3Zm0,0" transform="translate(-83.547 0)" fill="#e8dfdf"/>
  <path id="Tracé_64" data-name="Tracé 64" d="M17.062,253.178a12.2,12.2,0,0,0-.166-1.3,10.206,10.206,0,0,0-.319-1.3,6.435,6.435,0,0,0-.536-1.215,4.579,4.579,0,0,0-.807-1.052,3.559,3.559,0,0,0-1.16-.729,4.008,4.008,0,0,0-1.481-.268,1.5,1.5,0,0,0-.8.34c-.241.157-.522.338-.836.539a4.791,4.791,0,0,1-1.082.477,4.2,4.2,0,0,1-2.646,0,4.778,4.778,0,0,1-1.081-.476c-.311-.2-.593-.38-.837-.539a1.5,1.5,0,0,0-.8-.34,4,4,0,0,0-1.48.268,3.556,3.556,0,0,0-1.16.729,4.58,4.58,0,0,0-.807,1.052,6.446,6.446,0,0,0-.535,1.215,10.229,10.229,0,0,0-.318,1.3,12.112,12.112,0,0,0-.166,1.3c-.027.391-.041.8-.041,1.211a3.4,3.4,0,0,0,1.011,2.575,3.639,3.639,0,0,0,2.605.95h9.871a3.639,3.639,0,0,0,2.605-.95,3.4,3.4,0,0,0,1.011-2.576c0-.413-.014-.82-.041-1.211Zm-1.8,2.916a2.45,2.45,0,0,1-1.777.619H3.616a2.45,2.45,0,0,1-1.777-.619,2.223,2.223,0,0,1-.638-1.705c0-.384.013-.763.038-1.128a10.925,10.925,0,0,1,.15-1.167,9.021,9.021,0,0,1,.28-1.148,5.246,5.246,0,0,1,.436-.988,3.4,3.4,0,0,1,.593-.777,2.362,2.362,0,0,1,.772-.48,2.765,2.765,0,0,1,.946-.182c.042.022.117.065.238.144.247.161.532.345.846.546a5.952,5.952,0,0,0,1.358.607,5.4,5.4,0,0,0,3.385,0,5.957,5.957,0,0,0,1.359-.607c.322-.206.6-.384.846-.545.121-.079.2-.122.238-.144a2.766,2.766,0,0,1,.946.182,2.365,2.365,0,0,1,.771.48,3.386,3.386,0,0,1,.593.778,5.229,5.229,0,0,1,.436.987,9,9,0,0,1,.28,1.148,11.019,11.019,0,0,1,.15,1.167h0c.025.363.038.742.038,1.127a2.223,2.223,0,0,1-.638,1.7Zm0,0" transform="translate(0 -237.414)" fill="#e8dfdf"/>
</svg>
