<svg xmlns="http://www.w3.org/2000/svg" xmlns:xlink="http://www.w3.org/1999/xlink" width="16.107" height="14.668" viewBox="0 0 16.107 14.668">
  <defs>
    <linearGradient id="linear-gradient" y1="0.408" x2="1" y2="0.403" gradientUnits="objectBoundingBox">
      <stop offset="0" stop-color="#fff"/>
      <stop offset="1" stop-color="#fff"/>
    </linearGradient>
  </defs>
  <g id="heart" transform="translate(0)">
    <path id="heart-2" data-name="heart" d="M14.83,1.435A4.286,4.286,0,0,0,11.608,0,3.993,3.993,0,0,0,9.077.894,5.248,5.248,0,0,0,8.054,1.988,5.245,5.245,0,0,0,7.031.894,3.992,3.992,0,0,0,4.5,0,4.286,4.286,0,0,0,1.278,1.435,5.224,5.224,0,0,0,0,4.955,6.216,6.216,0,0,0,1.6,8.972a34.407,34.407,0,0,0,4,3.842c.554.483,1.182,1.031,1.834,1.615a.929.929,0,0,0,1.245,0c.652-.584,1.281-1.132,1.835-1.616a34.388,34.388,0,0,0,4-3.842,6.215,6.215,0,0,0,1.6-4.017A5.224,5.224,0,0,0,14.83,1.435Zm0,0" transform="translate(-0.001 0)" fill="url(#linear-gradient)"/>
  </g>
</svg>
